<?xml version="1.0" encoding="UTF-8"?>
<svg width="1024px" height="1024px" viewBox="0 0 1024 1024" version="1.1" xmlns="http://www.w3.org/2000/svg" xmlns:xlink="http://www.w3.org/1999/xlink">
  <defs>
    <linearGradient id="a" x1="14.6221%" x2="85.3517%" y1="14.6366%" y2="85.3663%">
      <stop offset="0%" stop-color="#0CFC0A"/>
      <stop offset="37%" stop-color="#07F16F"/>
      <stop offset="67%" stop-color="#03E9BC"/>
      <stop offset="89%" stop-color="#01E4EC"/>
      <stop offset="100%" stop-color="#00E2FF"/>
    </linearGradient>
    <linearGradient id="b" x1="50%" x2="50%" y1="-4.4778%" y2="104.4783%">
      <stop offset="0%" stop-color="#0CFC0A"/>
      <stop offset="37%" stop-color="#07F16F"/>
      <stop offset="67%" stop-color="#03E9BC"/>
      <stop offset="89%" stop-color="#01E4EC"/>
      <stop offset="100%" stop-color="#00E2FF"/>
    </linearGradient>
  </defs>
  <g fill="none" fill-rule="evenodd" transform="translate(-143 -143)">
    <path fill="url(#a)" fill-rule="nonzero" d="M986.5675 656.4227c0 182.6038-148.0296 330.6334-330.6334 330.6334S325.3006 839.0265 325.3006 656.4227s148.0297-330.6334 330.6335-330.6334c182.5818.053 330.5803 148.0516 330.6334 330.6334zm-239.2287 67.7222V589.9884a24.7014 24.7014 0 00-24.7014-24.7013H588.2888c-13.6422 0-24.7014 11.0591-24.7014 24.7013V724.145c0 13.6422 11.0592 24.7014 24.7014 24.7014h134.3486a24.7014 24.7014 0 0024.7014-24.7014z"/>
    <circle cx="655.5" cy="655.5" r="463.2713" stroke="url(#b)" stroke-width="82.9659" transform="rotate(-45 655.5 655.5)"/>
  </g>
</svg>
