<svg width="213" height="78" viewBox="0 0 213 78" fill="none" xmlns="http://www.w3.org/2000/svg">
<path fill-rule="evenodd" clip-rule="evenodd" d="M5 10H71V18H5C2.79086 18 1 16.2091 1 14C1 11.7909 2.79086 10 5 10Z" fill="#D9F0FF"/>
<path d="M99.3333 32L105.425 37.2904L99.3333 42.5803" stroke="#3098DC"/>
<path d="M92 37.2105H105.5" stroke="#3098DC"/>
<path fill-rule="evenodd" clip-rule="evenodd" d="M202.536 76.1897H119.162C117.138 76.1897 115.497 74.5435 115.497 72.5123V4.67742C115.497 2.64626 117.138 1 119.162 1H202.536C204.56 1 206.201 2.64626 206.201 4.67742V72.5123C206.201 74.5435 204.56 76.1897 202.536 76.1897Z" fill="#FEFEFE"/>
<path fill-rule="evenodd" clip-rule="evenodd" d="M202.536 76.1897H119.162C117.138 76.1897 115.497 74.5435 115.497 72.5123V4.67742C115.497 2.64626 117.138 1 119.162 1H202.536C204.56 1 206.201 2.64626 206.201 4.67742V72.5123C206.201 74.5435 204.56 76.1897 202.536 76.1897Z" stroke="#3098DC"/>
<path fill-rule="evenodd" clip-rule="evenodd" d="M210.706 76.6298H111.222C110.547 76.6298 110 76.0813 110 75.404V70.871C110 70.1937 110.547 69.6452 111.222 69.6452H210.706C211.38 69.6452 211.927 70.1937 211.927 70.871V75.404C211.927 76.0813 211.38 76.6298 210.706 76.6298Z" fill="#D9F0FF"/>
<path fill-rule="evenodd" clip-rule="evenodd" d="M210.706 76.6298H111.222C110.547 76.6298 110 76.0813 110 75.404V70.871C110 70.1937 110.547 69.6452 111.222 69.6452H210.706C211.38 69.6452 211.927 70.1937 211.927 70.871V75.404C211.927 76.0813 211.38 76.6298 210.706 76.6298Z" stroke="#3098DC"/>
<path fill-rule="evenodd" clip-rule="evenodd" d="M67.9571 69H4.68571C2.65059 69 1 67.3319 1 65.2737V13.7263C1 11.6688 2.65059 10 4.68571 10H67.9571C69.9923 10 71.6429 11.6688 71.6429 13.7263V65.2737C71.6429 67.3319 69.9923 69 67.9571 69Z" stroke="#3098DC"/>
<path d="M67.9571 17.4526H4.68571C2.65059 17.4526 1 15.7845 1 13.7263C1 11.6688 2.65059 10 4.68571 10H67.9571C69.9923 10 71.6429 11.6688 71.6429 13.7263" stroke="#3098DC"/>
<path d="M67.9571 17.4526C69.9923 17.4526 71.6429 19.1214 71.6429 21.1789" stroke="#3098DC"/>
<path fill-rule="evenodd" clip-rule="evenodd" d="M71.6429 33.5988H86.5319V29.8737H71.6429V33.5988Z" stroke="#3098DC"/>
<path fill-rule="evenodd" clip-rule="evenodd" d="M71.6429 48.6531H86.5319V33.6H71.6429V48.6531Z" stroke="#3098DC"/>
<path fill-rule="evenodd" clip-rule="evenodd" d="M36.2784 32.3579L29.9666 42.8357L36.2784 46.5682L42.5902 42.8388L36.2784 32.3579ZM36.1832 47.7631L29.8714 44.0337L36.1832 52.9321L42.4987 44.0337L36.182 47.7631H36.1832Z" fill="#3098DC"/>
<path fill-rule="evenodd" clip-rule="evenodd" d="M51.4673 42.9642C51.4673 34.3627 44.5701 27.3895 36.0622 27.3895C27.5543 27.3895 20.6571 34.3627 20.6571 42.9642C20.6571 51.5664 27.5543 58.539 36.0622 58.539C44.5701 58.539 51.4673 51.5664 51.4673 42.9642Z" stroke="#3098DC"/>
<mask id="mask0" mask-type="alpha" maskUnits="userSpaceOnUse" x="142" y="16" width="38" height="38">
<path d="M161 53C170.941 53 179 44.9411 179 35C179 25.0589 170.941 17 161 17C151.059 17 143 25.0589 143 35C143 44.9411 151.059 53 161 53ZM161 51.4203C151.931 51.4203 144.58 44.0687 144.58 35C144.58 25.9313 151.931 18.5797 161 18.5797C170.069 18.5797 177.42 25.9313 177.42 35C177.42 44.0687 170.069 51.4203 161 51.4203ZM161 45.8406C166.987 45.8406 171.841 40.9871 171.841 35C171.841 29.0129 166.987 24.1594 161 24.1594C155.013 24.1594 150.159 29.0129 150.159 35C150.159 40.9871 155.013 45.8406 161 45.8406ZM164.031 30.1449C165.038 30.1449 165.855 30.9616 165.855 31.969V38.1591C165.855 39.1665 165.038 39.9831 164.031 39.9831H157.841C156.834 39.9831 156.017 39.1665 156.017 38.1591V31.969C156.017 30.9616 156.834 30.1449 157.841 30.1449H164.031Z" stroke="#3098DC" stroke-width="2"/>
</mask>
<g mask="url(#mask0)">
<path d="M161 53C170.941 53 179 44.9411 179 35C179 25.0589 170.941 17 161 17C151.059 17 143 25.0589 143 35C143 44.9411 151.059 53 161 53ZM161 51.4203C151.931 51.4203 144.58 44.0687 144.58 35C144.58 25.9313 151.931 18.5797 161 18.5797C170.069 18.5797 177.42 25.9313 177.42 35C177.42 44.0687 170.069 51.4203 161 51.4203ZM161 45.8406C166.987 45.8406 171.841 40.9871 171.841 35C171.841 29.0129 166.987 24.1594 161 24.1594C155.013 24.1594 150.159 29.0129 150.159 35C150.159 40.9871 155.013 45.8406 161 45.8406ZM164.031 30.1449C165.038 30.1449 165.855 30.9616 165.855 31.969V38.1591C165.855 39.1665 165.038 39.9831 164.031 39.9831H157.841C156.834 39.9831 156.017 39.1665 156.017 38.1591V31.969C156.017 30.9616 156.834 30.1449 157.841 30.1449H164.031Z" stroke="#3098DC" stroke-width="2"/>
</g>
</svg>
