<svg width="108" height="85" viewBox="0 0 108 85" fill="none" xmlns="http://www.w3.org/2000/svg">
<path fill-rule="evenodd" clip-rule="evenodd" d="M97.2021 84H10.7979C8.7008 84 7 82.2922 7 80.1851V9.81487C7 7.70779 8.7008 6 10.7979 6H97.2021C99.2998 6 101 7.70779 101 9.81487V80.1851C101 82.2922 99.2998 84 97.2021 84Z" fill="#FEFEFE"/>
<path fill-rule="evenodd" clip-rule="evenodd" d="M97.2021 84H10.7979C8.7008 84 7 82.2922 7 80.1851V9.81487C7 7.70779 8.7008 6 10.7979 6H97.2021C99.2998 6 101 7.70779 101 9.81487V80.1851C101 82.2922 99.2998 84 97.2021 84Z" stroke="#3098DC"/>
<path fill-rule="evenodd" clip-rule="evenodd" d="M105.73 84H2.27037C1.56849 84 1 83.4502 1 82.7715V78.2285C1 77.5498 1.56849 77 2.27037 77H105.73C106.431 77 107 77.5498 107 78.2285V82.7715C107 83.4502 106.431 84 105.73 84Z" fill="#D9F0FF"/>
<path fill-rule="evenodd" clip-rule="evenodd" d="M105.73 84H2.27037C1.56849 84 1 83.4502 1 82.7715V78.2285C1 77.5498 1.56849 77 2.27037 77H105.73C106.431 77 107 77.5498 107 78.2285V82.7715C107 83.4502 106.431 84 105.73 84Z" stroke="#3098DC"/>
<path fill-rule="evenodd" clip-rule="evenodd" d="M11 72H97V11H11V72Z" fill="#FEFEFE"/>
<path fill-rule="evenodd" clip-rule="evenodd" d="M11 72H97V11H11V72Z" stroke="#3098DC"/>
<path d="M90.5 15.5H17.5C16.3954 15.5 15.5 16.3954 15.5 17.5V66.5C15.5 67.6046 16.3954 68.5 17.5 68.5H90.5C91.6046 68.5 92.5 67.6046 92.5 66.5V17.5C92.5 16.3954 91.6046 15.5 90.5 15.5Z" fill="white" stroke="#3098DC"/>
<path fill-rule="evenodd" clip-rule="evenodd" d="M15.5 22.5H92.5V17C92.5 16.1716 91.8284 15.5 91 15.5H17C16.1716 15.5 15.5 16.1716 15.5 17V22.5Z" fill="white" stroke="#3098DC"/>
<path d="M19 20C19.5523 20 20 19.5523 20 19C20 18.4477 19.5523 18 19 18C18.4477 18 18 18.4477 18 19C18 19.5523 18.4477 20 19 20Z" fill="#D9F0FF" stroke="#3098DC"/>
<path d="M23.7692 20C24.3215 20 24.7692 19.5523 24.7692 19C24.7692 18.4477 24.3215 18 23.7692 18C23.2169 18 22.7692 18.4477 22.7692 19C22.7692 19.5523 23.2169 20 23.7692 20Z" fill="#D9F0FF" stroke="#3098DC"/>
<path d="M28.5385 20C29.0907 20 29.5385 19.5523 29.5385 19C29.5385 18.4477 29.0907 18 28.5385 18C27.9862 18 27.5385 18.4477 27.5385 19C27.5385 19.5523 27.9862 20 28.5385 20Z" fill="#D9F0FF" stroke="#3098DC"/>
<path d="M105 16C105 23.732 98.732 30 91 30C83.268 30 77 23.732 77 16C77 8.26801 83.268 2 91 2C98.732 2 105 8.26801 105 16Z" fill="white"/>
<mask id="mask0" mask-type="alpha" maskUnits="userSpaceOnUse" x="77" y="2" width="28" height="28">
<path d="M91 29C98.1797 29 104 23.1797 104 16C104 8.8203 98.1797 3 91 3C83.8203 3 78 8.8203 78 16C78 23.1797 83.8203 29 91 29ZM91 28.3623C84.1725 28.3623 78.6377 22.8275 78.6377 16C78.6377 9.17248 84.1725 3.63768 91 3.63768C97.8275 3.63768 103.362 9.17248 103.362 16C103.362 22.8275 97.8275 28.3623 91 28.3623ZM91 23.7246C95.2662 23.7246 98.7246 20.2662 98.7246 16C98.7246 11.7338 95.2662 8.27536 91 8.27536C86.7338 8.27536 83.2754 11.7338 83.2754 16C83.2754 20.2662 86.7338 23.7246 91 23.7246ZM93.2334 12.1594C94.121 12.1594 94.8406 12.879 94.8406 13.7666V18.3277C94.8406 19.2154 94.121 19.9349 93.2334 19.9349H88.6723C87.7846 19.9349 87.0651 19.2154 87.0651 18.3277V13.7666C87.0651 12.879 87.7846 12.1594 88.6723 12.1594H93.2334Z" stroke="#3098DC" stroke-width="2"/>
</mask>
<g mask="url(#mask0)">
<path d="M91 29C98.1797 29 104 23.1797 104 16C104 8.8203 98.1797 3 91 3C83.8203 3 78 8.8203 78 16C78 23.1797 83.8203 29 91 29ZM91 28.3623C84.1725 28.3623 78.6377 22.8275 78.6377 16C78.6377 9.17248 84.1725 3.63768 91 3.63768C97.8275 3.63768 103.362 9.17248 103.362 16C103.362 22.8275 97.8275 28.3623 91 28.3623ZM91 23.7246C95.2662 23.7246 98.7246 20.2662 98.7246 16C98.7246 11.7338 95.2662 8.27536 91 8.27536C86.7338 8.27536 83.2754 11.7338 83.2754 16C83.2754 20.2662 86.7338 23.7246 91 23.7246ZM93.2334 12.1594C94.121 12.1594 94.8406 12.879 94.8406 13.7666V18.3277C94.8406 19.2154 94.121 19.9349 93.2334 19.9349H88.6723C87.7846 19.9349 87.0651 19.2154 87.0651 18.3277V13.7666C87.0651 12.879 87.7846 12.1594 88.6723 12.1594H93.2334Z" stroke="#3098DC" stroke-width="2"/>
</g>
<path d="M27.3652 42.2334H30.8418V43H26.4619V35.8906H27.3652V42.2334Z" fill="#3098DC"/>
<path d="M36.9746 39.8555C36.9714 40.1094 36.9486 40.3665 36.9062 40.627C36.8672 40.8841 36.8053 41.1331 36.7207 41.374C36.6361 41.6149 36.527 41.8395 36.3936 42.0479C36.2633 42.2562 36.1071 42.4385 35.9248 42.5947C35.7425 42.751 35.5326 42.8747 35.2949 42.9658C35.0605 43.0537 34.7969 43.0977 34.5039 43.0977C34.2109 43.0977 33.9456 43.0537 33.708 42.9658C33.4736 42.8747 33.2653 42.751 33.083 42.5947C32.9007 42.4385 32.7428 42.2562 32.6094 42.0479C32.4759 41.8363 32.3652 41.61 32.2773 41.3691C32.1927 41.1283 32.1292 40.8792 32.0869 40.6221C32.0446 40.3649 32.0218 40.1094 32.0186 39.8555V39.0449C32.0218 38.791 32.043 38.5355 32.082 38.2783C32.1243 38.0179 32.1878 37.7673 32.2725 37.5264C32.3604 37.2855 32.4694 37.0609 32.5996 36.8525C32.7331 36.641 32.891 36.457 33.0732 36.3008C33.2555 36.1413 33.4639 36.0176 33.6982 35.9297C33.9359 35.8385 34.2012 35.793 34.4941 35.793C34.7871 35.793 35.0524 35.8385 35.29 35.9297C35.5277 36.0176 35.7376 36.1396 35.9199 36.2959C36.1022 36.4521 36.2585 36.6361 36.3887 36.8477C36.5221 37.056 36.6312 37.2806 36.7158 37.5215C36.8037 37.7624 36.8672 38.013 36.9062 38.2734C36.9486 38.5339 36.9714 38.791 36.9746 39.0449V39.8555ZM36.0811 39.0352C36.0778 38.8659 36.0664 38.6901 36.0469 38.5078C36.0273 38.3223 35.9932 38.14 35.9443 37.9609C35.8988 37.7786 35.8369 37.6061 35.7588 37.4434C35.6807 37.2773 35.583 37.1325 35.4658 37.0088C35.3486 36.8818 35.2103 36.7826 35.0508 36.7109C34.8913 36.6361 34.7057 36.5986 34.4941 36.5986C34.2858 36.5986 34.1019 36.6361 33.9424 36.7109C33.7829 36.7858 33.6445 36.8867 33.5273 37.0137C33.4102 37.1374 33.3125 37.2822 33.2344 37.4482C33.1562 37.611 33.0928 37.7835 33.0439 37.9658C32.9984 38.1449 32.9642 38.3271 32.9414 38.5127C32.9219 38.695 32.9105 38.8691 32.9072 39.0352V39.8555C32.9105 40.0215 32.9219 40.1973 32.9414 40.3828C32.9642 40.5684 33 40.7523 33.0488 40.9346C33.0977 41.1136 33.1611 41.2861 33.2393 41.4521C33.3174 41.6182 33.415 41.7646 33.5322 41.8916C33.6494 42.0153 33.7878 42.1146 33.9473 42.1895C34.1068 42.2643 34.2923 42.3018 34.5039 42.3018C34.7155 42.3018 34.901 42.2643 35.0605 42.1895C35.2233 42.1146 35.3617 42.0153 35.4756 41.8916C35.5928 41.7646 35.6888 41.6198 35.7637 41.457C35.8418 41.291 35.9036 41.1185 35.9492 40.9395C35.998 40.7572 36.0306 40.5732 36.0469 40.3877C36.0664 40.2021 36.0778 40.0247 36.0811 39.8555V39.0352Z" fill="#3098DC"/>
<path d="M42.9561 42.0674C42.6566 42.4189 42.3132 42.6794 41.9258 42.8486C41.5384 43.0179 41.1136 43.1009 40.6514 43.0977C40.3584 43.0944 40.0882 43.0505 39.8408 42.9658C39.5967 42.8779 39.377 42.7591 39.1816 42.6094C38.9863 42.4564 38.8154 42.2773 38.6689 42.0723C38.5225 41.8672 38.3988 41.6458 38.2979 41.4082C38.2002 41.1673 38.1253 40.9167 38.0732 40.6562C38.0244 40.3926 37.9984 40.1273 37.9951 39.8604V39.0352C37.9984 38.7715 38.0212 38.5094 38.0635 38.249C38.109 37.9854 38.1774 37.7331 38.2686 37.4922C38.3597 37.2513 38.4736 37.0283 38.6104 36.8232C38.7471 36.6149 38.9098 36.4359 39.0986 36.2861C39.2907 36.1331 39.5072 36.0127 39.748 35.9248C39.9889 35.8369 40.2591 35.793 40.5586 35.793C40.8906 35.793 41.1966 35.8451 41.4766 35.9492C41.7565 36.0501 42.0007 36.1966 42.209 36.3887C42.4173 36.5775 42.585 36.807 42.7119 37.0771C42.8389 37.3441 42.917 37.6436 42.9463 37.9756H42.0527C42.0169 37.7705 41.9616 37.5817 41.8867 37.4092C41.8118 37.2334 41.7126 37.0837 41.5889 36.96C41.4684 36.8363 41.3236 36.7402 41.1543 36.6719C40.985 36.6003 40.7881 36.5645 40.5635 36.5645C40.3486 36.5645 40.1582 36.6019 39.9922 36.6768C39.8262 36.7484 39.6813 36.846 39.5576 36.9697C39.4339 37.0934 39.3314 37.2383 39.25 37.4043C39.1686 37.5671 39.1019 37.7396 39.0498 37.9219C38.9977 38.1042 38.9603 38.2897 38.9375 38.4785C38.9147 38.6673 38.9033 38.8496 38.9033 39.0254V39.8604C38.9066 40.0394 38.9212 40.2249 38.9473 40.417C38.9766 40.6058 39.0205 40.7913 39.0791 40.9736C39.1377 41.1559 39.2126 41.3285 39.3037 41.4912C39.3949 41.654 39.5039 41.7972 39.6309 41.9209C39.7611 42.0446 39.9108 42.1439 40.0801 42.2188C40.2493 42.2904 40.4414 42.3278 40.6562 42.3311C40.7799 42.3343 40.9085 42.3294 41.042 42.3164C41.1787 42.3034 41.3105 42.2773 41.4375 42.2383C41.5645 42.1992 41.6833 42.1471 41.7939 42.082C41.9046 42.0137 41.9974 41.9258 42.0723 41.8184L42.082 40.2217H40.6367V39.46H42.9414L42.9561 42.0674Z" fill="#3098DC"/>
<path d="M44.3623 35.8906H48.6592V36.6768H46.9551V42.2188H48.6592V43H44.3623V42.2188H46.0273V36.6768H44.3623V35.8906Z" fill="#3098DC"/>
<path d="M54.8213 43H53.9033L51.1445 37.6875L51.1299 43H50.2168V35.8906H51.1348L53.8936 41.1934L53.9082 35.8906H54.8213V43Z" fill="#3098DC"/>
<path d="M29.8701 53.0762L30.4121 47.8906H31.2666L30.4023 55H29.4795L28.5664 49.6436L27.6436 55H26.7158L25.8516 47.8906H26.7109L27.2529 53.0762L28.166 47.8906H28.9521L29.8701 53.0762Z" fill="#3098DC"/>
<path d="M32.3506 47.8906H36.6475V48.6768H34.9434V54.2188H36.6475V55H32.3506V54.2188H34.0156V48.6768H32.3506V47.8906Z" fill="#3098DC"/>
<path d="M43.1514 48.6621H40.9541V55H40.0752V48.6621H37.8779V47.8906H43.1514V48.6621Z" fill="#3098DC"/>
<path d="M48.8203 55H47.9658V51.7139H45.0508V55H44.2012V47.8906H45.0508V50.9473H47.9658V47.8906H48.8203V55Z" fill="#3098DC"/>
<path d="M60.5391 51.8848H57.6191V53.8916H61.0322V55H56.2422V47.8906H61.0176V49.0088H57.6191V50.8008H60.5391V51.8848Z" fill="#3098DC"/>
<path d="M62.1602 55V47.8906H64.5479C64.9352 47.8906 65.2868 47.9297 65.6025 48.0078C65.9215 48.0859 66.1934 48.2048 66.418 48.3643C66.6426 48.5238 66.8151 48.7256 66.9355 48.9697C67.0592 49.2139 67.1211 49.502 67.1211 49.834C67.1178 50.166 67.0283 50.4639 66.8525 50.7275C66.68 50.9912 66.4245 51.1914 66.0859 51.3281C66.291 51.3802 66.4684 51.4583 66.6182 51.5625C66.7679 51.6667 66.8916 51.7904 66.9893 51.9336C67.0902 52.0736 67.1634 52.2282 67.209 52.3975C67.2578 52.5635 67.2822 52.736 67.2822 52.915C67.2822 53.2568 67.2236 53.5579 67.1064 53.8184C66.9893 54.0788 66.8216 54.2969 66.6035 54.4727C66.3854 54.6484 66.1201 54.7803 65.8076 54.8682C65.4951 54.9561 65.1436 55 64.7529 55H62.1602ZM63.5371 51.8652V53.8916H64.7578C65.1322 53.8883 65.417 53.7972 65.6123 53.6182C65.8109 53.4359 65.9102 53.1982 65.9102 52.9053C65.9134 52.5798 65.8255 52.3258 65.6465 52.1436C65.4674 51.9613 65.1908 51.8685 64.8164 51.8652H63.5371ZM63.5371 50.874H64.5576C64.9385 50.8708 65.2314 50.791 65.4365 50.6348C65.6416 50.4785 65.7458 50.249 65.749 49.9463C65.749 49.6143 65.6465 49.3766 65.4414 49.2334C65.2363 49.0869 64.9401 49.012 64.5527 49.0088H63.5371V50.874Z" fill="#3098DC"/>
<path d="M73.1367 51.9678C73.1367 52.4235 73.0765 52.8434 72.9561 53.2275C72.8356 53.6117 72.6615 53.9421 72.4336 54.2188C72.2057 54.4954 71.9274 54.7119 71.5986 54.8682C71.2731 55.0212 70.9053 55.0977 70.4951 55.0977C70.085 55.0977 69.7204 55.0212 69.4014 54.8682C69.0824 54.7119 68.8138 54.4954 68.5957 54.2188C68.3776 53.9388 68.2116 53.6084 68.0977 53.2275C67.9837 52.8434 67.9268 52.4235 67.9268 51.9678V50.9326C67.9268 50.4769 67.9837 50.057 68.0977 49.6729C68.2116 49.2887 68.3776 48.9583 68.5957 48.6816C68.8138 48.4017 69.0807 48.1836 69.3965 48.0273C69.7155 47.8711 70.0801 47.793 70.4902 47.793C70.9036 47.793 71.2731 47.8711 71.5986 48.0273C71.9274 48.1836 72.2057 48.4017 72.4336 48.6816C72.6615 48.9583 72.8356 49.2887 72.9561 49.6729C73.0765 50.057 73.1367 50.4769 73.1367 50.9326V51.9678ZM71.7451 50.9229C71.7451 50.6331 71.7207 50.3662 71.6719 50.1221C71.6263 49.8779 71.5531 49.668 71.4521 49.4922C71.3512 49.3164 71.221 49.1797 71.0615 49.082C70.9053 48.9811 70.7148 48.9307 70.4902 48.9307C70.2689 48.9307 70.0833 48.9811 69.9336 49.082C69.7839 49.1797 69.6634 49.3164 69.5723 49.4922C69.4811 49.668 69.416 49.8779 69.377 50.1221C69.3379 50.3662 69.3184 50.6331 69.3184 50.9229V51.9678C69.3184 52.2542 69.3379 52.5195 69.377 52.7637C69.416 53.0078 69.4811 53.2194 69.5723 53.3984C69.6634 53.5775 69.7839 53.7174 69.9336 53.8184C70.0833 53.9193 70.2705 53.9697 70.4951 53.9697C70.7165 53.9697 70.9053 53.9193 71.0615 53.8184C71.221 53.7174 71.3496 53.5791 71.4473 53.4033C71.5482 53.2243 71.623 53.0127 71.6719 52.7686C71.7207 52.5244 71.7451 52.2575 71.7451 51.9678V50.9229Z" fill="#3098DC"/>
</svg>
