<svg width="78" height="22" viewBox="0 0 78 22" fill="none" xmlns="http://www.w3.org/2000/svg">
<path d="M31.3213 18.1348C31.3213 17.8581 31.2236 17.6465 31.0283 17.5C30.833 17.3503 30.4814 17.194 29.9736 17.0312C29.4658 16.8652 29.0638 16.7025 28.7676 16.543C27.9603 16.1068 27.5566 15.5192 27.5566 14.7803C27.5566 14.3962 27.6641 14.0544 27.8789 13.7549C28.097 13.4521 28.4079 13.2161 28.8115 13.0469C29.2184 12.8776 29.6742 12.793 30.1787 12.793C30.6865 12.793 31.139 12.8857 31.5361 13.0713C31.9333 13.2536 32.2409 13.5124 32.459 13.8477C32.6803 14.1829 32.791 14.5638 32.791 14.9902H31.3262C31.3262 14.6647 31.2236 14.4124 31.0186 14.2334C30.8135 14.0511 30.5254 13.96 30.1543 13.96C29.7962 13.96 29.5179 14.0365 29.3193 14.1895C29.1208 14.3392 29.0215 14.5378 29.0215 14.7852C29.0215 15.0163 29.137 15.21 29.3682 15.3662C29.6025 15.5225 29.946 15.6689 30.3984 15.8057C31.2318 16.0563 31.8389 16.3672 32.2197 16.7383C32.6006 17.1094 32.791 17.5716 32.791 18.125C32.791 18.7402 32.5583 19.2236 32.0928 19.5752C31.6273 19.9235 31.0007 20.0977 30.2129 20.0977C29.666 20.0977 29.168 19.9984 28.7188 19.7998C28.2695 19.598 27.9261 19.3229 27.6885 18.9746C27.4541 18.6263 27.3369 18.2227 27.3369 17.7637H28.8066C28.8066 18.5482 29.2754 18.9404 30.2129 18.9404C30.5612 18.9404 30.833 18.8704 31.0283 18.7305C31.2236 18.5872 31.3213 18.3887 31.3213 18.1348ZM36.126 20.0977C35.3512 20.0977 34.7197 19.86 34.2314 19.3848C33.7464 18.9095 33.5039 18.2764 33.5039 17.4854V17.3486C33.5039 16.818 33.6064 16.3444 33.8115 15.9277C34.0166 15.5078 34.3063 15.1855 34.6807 14.9609C35.0583 14.7331 35.488 14.6191 35.9697 14.6191C36.6924 14.6191 37.2604 14.847 37.6738 15.3027C38.0905 15.7585 38.2988 16.4046 38.2988 17.2412V17.8174H34.9346C34.9801 18.1624 35.1169 18.4391 35.3447 18.6475C35.5758 18.8558 35.8672 18.96 36.2188 18.96C36.7624 18.96 37.1872 18.763 37.4932 18.3691L38.1865 19.1455C37.9749 19.445 37.6885 19.6794 37.3271 19.8486C36.9658 20.0146 36.5654 20.0977 36.126 20.0977ZM35.9648 15.7617C35.6849 15.7617 35.457 15.8561 35.2812 16.0449C35.1087 16.2337 34.998 16.5039 34.9492 16.8555H36.9121V16.7432C36.9056 16.4307 36.821 16.1898 36.6582 16.0205C36.4954 15.848 36.2643 15.7617 35.9648 15.7617ZM41.3018 18.96C41.5622 18.96 41.7738 18.8883 41.9365 18.7451C42.0993 18.6019 42.1839 18.4115 42.1904 18.1738H43.5137C43.5104 18.5319 43.4128 18.8607 43.2207 19.1602C43.0286 19.4564 42.765 19.6875 42.4297 19.8535C42.0977 20.0163 41.7298 20.0977 41.3262 20.0977C40.571 20.0977 39.9753 19.8584 39.5391 19.3799C39.1029 18.8981 38.8848 18.234 38.8848 17.3877V17.2949C38.8848 16.4811 39.1012 15.8317 39.5342 15.3467C39.9671 14.8617 40.5612 14.6191 41.3164 14.6191C41.9772 14.6191 42.5062 14.8079 42.9033 15.1855C43.3037 15.5599 43.5072 16.0596 43.5137 16.6846H42.1904C42.1839 16.4111 42.0993 16.1898 41.9365 16.0205C41.7738 15.848 41.5589 15.7617 41.292 15.7617C40.9632 15.7617 40.7142 15.8822 40.5449 16.123C40.3789 16.3607 40.2959 16.748 40.2959 17.2852V17.4316C40.2959 17.9753 40.3789 18.3659 40.5449 18.6035C40.7109 18.8411 40.9632 18.96 41.3018 18.96ZM47.4834 19.4629C47.1351 19.8861 46.6533 20.0977 46.0381 20.0977C45.4717 20.0977 45.0387 19.9349 44.7393 19.6094C44.443 19.2839 44.2917 18.807 44.2852 18.1787V14.7168H45.6963V18.1299C45.6963 18.68 45.9469 18.9551 46.4482 18.9551C46.9268 18.9551 47.2555 18.7891 47.4346 18.457V14.7168H48.8506V20H47.5225L47.4834 19.4629ZM52.8838 16.04C52.6917 16.014 52.5225 16.001 52.376 16.001C51.8421 16.001 51.4922 16.1816 51.3262 16.543V20H49.915V14.7168H51.248L51.2871 15.3467C51.5703 14.8617 51.9626 14.6191 52.4639 14.6191C52.6201 14.6191 52.7666 14.6403 52.9033 14.6826L52.8838 16.04ZM55.9014 20.0977C55.1266 20.0977 54.4951 19.86 54.0068 19.3848C53.5218 18.9095 53.2793 18.2764 53.2793 17.4854V17.3486C53.2793 16.818 53.3818 16.3444 53.5869 15.9277C53.792 15.5078 54.0817 15.1855 54.4561 14.9609C54.8337 14.7331 55.2633 14.6191 55.7451 14.6191C56.4678 14.6191 57.0358 14.847 57.4492 15.3027C57.8659 15.7585 58.0742 16.4046 58.0742 17.2412V17.8174H54.71C54.7555 18.1624 54.8923 18.4391 55.1201 18.6475C55.3512 18.8558 55.6426 18.96 55.9941 18.96C56.5378 18.96 56.9626 18.763 57.2686 18.3691L57.9619 19.1455C57.7503 19.445 57.4639 19.6794 57.1025 19.8486C56.7412 20.0146 56.3408 20.0977 55.9014 20.0977ZM55.7402 15.7617C55.4603 15.7617 55.2324 15.8561 55.0566 16.0449C54.8841 16.2337 54.7734 16.5039 54.7246 16.8555H56.6875V16.7432C56.681 16.4307 56.5964 16.1898 56.4336 16.0205C56.2708 15.848 56.0397 15.7617 55.7402 15.7617Z" fill="#A2A4AC"/>
<path fill-rule="evenodd" clip-rule="evenodd" d="M0 2.65498V8.69867C0 14.9252 4.19995 20.1981 10 22C15.7999 20.1981 20 14.9252 20 8.69867V2.65498L10 0L0 2.65498Z" fill="#A2A4AC"/>
<mask id="mask0" mask-type="alpha" maskUnits="userSpaceOnUse" x="3" y="3" width="14" height="14">
<path d="M10 17C13.866 17 17 13.866 17 10C17 6.13401 13.866 3 10 3C6.13401 3 3 6.13401 3 10C3 13.866 6.13401 17 10 17ZM10 15.6812C6.86238 15.6812 4.31884 13.1376 4.31884 10C4.31884 6.86238 6.86238 4.31884 10 4.31884C13.1376 4.31884 15.6812 6.86238 15.6812 10C15.6812 13.1376 13.1376 15.6812 10 15.6812ZM10 14.3623C12.4092 14.3623 14.3623 12.4092 14.3623 10C14.3623 7.59076 12.4092 5.63768 10 5.63768C7.59076 5.63768 5.63768 7.59076 5.63768 10C5.63768 12.4092 7.59076 14.3623 10 14.3623ZM11.1167 8.57971C11.2844 8.57971 11.4203 8.71564 11.4203 8.88332V11.1639C11.4203 11.3315 11.2844 11.4675 11.1167 11.4675H8.83614C8.66846 11.4675 8.53252 11.3315 8.53252 11.1639V8.88332C8.53252 8.71564 8.66846 8.57971 8.83614 8.57971H11.1167Z" fill="white"/>
</mask>
<g mask="url(#mask0)">
<path d="M10 17C13.866 17 17 13.866 17 10C17 6.13401 13.866 3 10 3C6.13401 3 3 6.13401 3 10C3 13.866 6.13401 17 10 17ZM10 15.6812C6.86238 15.6812 4.31884 13.1376 4.31884 10C4.31884 6.86238 6.86238 4.31884 10 4.31884C13.1376 4.31884 15.6812 6.86238 15.6812 10C15.6812 13.1376 13.1376 15.6812 10 15.6812ZM10 14.3623C12.4092 14.3623 14.3623 12.4092 14.3623 10C14.3623 7.59076 12.4092 5.63768 10 5.63768C7.59076 5.63768 5.63768 7.59076 5.63768 10C5.63768 12.4092 7.59076 14.3623 10 14.3623ZM11.1167 8.57971C11.2844 8.57971 11.4203 8.71564 11.4203 8.88332V11.1639C11.4203 11.3315 11.2844 11.4675 11.1167 11.4675H8.83614C8.66846 11.4675 8.53252 11.3315 8.53252 11.1639V8.88332C8.53252 8.71564 8.66846 8.57971 8.83614 8.57971H11.1167Z" fill="white"/>
<path d="M3 3H17V17H3V3Z" fill="white"/>
</g>
<path d="M31.9121 7.91895H29.0996V9.82324H32.4004V11H27.6348V3.89062H32.3906V5.07715H29.0996V6.77148H31.9121V7.91895Z" fill="#A2A4AC"/>
<path d="M33.2598 11V3.89062H35.75C36.6126 3.89062 37.2669 4.05664 37.7129 4.38867C38.1589 4.71745 38.3818 5.20085 38.3818 5.83887C38.3818 6.18717 38.2923 6.49479 38.1133 6.76172C37.9342 7.02539 37.6852 7.21908 37.3662 7.34277C37.7308 7.43392 38.0173 7.61784 38.2256 7.89453C38.4372 8.17122 38.543 8.50977 38.543 8.91016C38.543 9.59375 38.3249 10.1113 37.8887 10.4629C37.4525 10.8145 36.8307 10.9935 36.0234 11H33.2598ZM34.7246 7.9043V9.82324H35.9795C36.3245 9.82324 36.5931 9.74186 36.7852 9.5791C36.9805 9.41309 37.0781 9.18522 37.0781 8.89551C37.0781 8.24447 36.7412 7.91406 36.0674 7.9043H34.7246ZM34.7246 6.86914H35.8086C36.5475 6.85612 36.917 6.56152 36.917 5.98535C36.917 5.66309 36.8226 5.43197 36.6338 5.29199C36.4482 5.14876 36.1536 5.07715 35.75 5.07715H34.7246V6.86914Z" fill="#A2A4AC"/>
<path d="M45.4863 7.60645C45.4863 8.30632 45.3626 8.91992 45.1152 9.44727C44.8678 9.97461 44.513 10.3815 44.0508 10.668C43.5918 10.9544 43.0645 11.0977 42.4688 11.0977C41.8796 11.0977 41.3538 10.9561 40.8916 10.6729C40.4294 10.3896 40.0713 9.986 39.8174 9.46191C39.5635 8.93457 39.4349 8.3291 39.4316 7.64551V7.29395C39.4316 6.59408 39.557 5.97884 39.8076 5.44824C40.0615 4.91439 40.418 4.50586 40.877 4.22266C41.3392 3.9362 41.8665 3.79297 42.459 3.79297C43.0514 3.79297 43.5771 3.9362 44.0361 4.22266C44.4984 4.50586 44.8548 4.91439 45.1055 5.44824C45.3594 5.97884 45.4863 6.59245 45.4863 7.28906V7.60645ZM44.002 7.28418C44.002 6.53874 43.8685 5.97233 43.6016 5.58496C43.3346 5.19759 42.9538 5.00391 42.459 5.00391C41.9674 5.00391 41.5882 5.19596 41.3213 5.58008C41.0544 5.96094 40.9193 6.52083 40.916 7.25977V7.60645C40.916 8.33236 41.0495 8.89551 41.3164 9.2959C41.5833 9.69629 41.9674 9.89648 42.4688 9.89648C42.9603 9.89648 43.3379 9.70443 43.6016 9.32031C43.8652 8.93294 43.9987 8.36979 44.002 7.63086V7.28418Z" fill="#A2A4AC"/>
</svg>
